<?xml version="1.0" encoding="UTF-8" standalone="no"?>
<!-- Created with Inkscape (http://www.inkscape.org/) -->

<svg
   width="175.12936mm"
   height="49.552643mm"
   viewBox="0 0 175.12936 49.552643"
   version="1.1"
   id="svg1"
   xml:space="preserve"
   xmlns="http://www.w3.org/2000/svg"
   xmlns:svg="http://www.w3.org/2000/svg"><defs
     id="defs1" /><g
     id="layer1"
     transform="translate(-17.422156,-46.145251)"><path
       style="fill:#000000;fill-opacity:1;stroke-width:0.264583"
       d="m 17.422156,88.442358 24.875925,-35.06709 8.86124,-0.1007 13.784072,20.28046 -6.977975,9.39891 H 36.461857 l 6.12353,-8.25964 H 53.978001 L 46.71521,63.016868 28.324344,88.587348 Z"
       id="path22" /><path
       style="fill:#000000;fill-opacity:1;stroke-width:0.264583"
       d="m 67.768516,88.561288 -11.538326,-0.0757 9.835952,-12.82457 1.702374,2.3455 z"
       id="path23" /><path
       style="fill:#000000;fill-opacity:1;stroke-width:0.264583"
       d="m 71.640312,64.600468 v -11.33878 h 9.631867 z"
       id="path24" /><path
       style="fill:#000000;fill-opacity:1;stroke-width:0.264583"
       d="m 71.762234,88.497248 -0.06096,-20.30007 9.753788,-11.58263 0.121923,31.94366 z"
       id="path25" /><path
       style="fill:#000000;fill-opacity:1;stroke-width:0.264583"
       d="m 89.237545,51.642928 4.038328,0.0454 3.856828,-3.26696 h 15.563439 l 6.98767,5.58106 0.0746,9.86023 -23.608609,17.05799 -0.395676,0.79134 0.04396,4.61621 1.23099,1.23099 24.487885,0.17586 2.72576,-2.1982 -25.630944,-0.0879 -0.39568,-0.43963 0.044,-2.76973 0.39568,-0.4836 22.817254,-16.09078 0.83531,-1.49477 0.0879,-10.1117 -0.79135,-1.75855 -7.12215,-5.7153 -1.01117,-0.43964 -17.365731,0.044 z"
       id="path26" /><path
       style="fill:#000000;fill-opacity:1;stroke-width:0.264583"
       d="m 152.05169,62.108618 8.58375,-8.58375 -24.69549,0.0918 c 0,0 -8.44605,2.24922 -9.22639,9.04278 -0.78034,6.79356 0.0459,-0.0459 0.0459,-0.0459 v 17.76424 c 0,0 0.64264,7.48209 10.00673,7.94112 9.36409,0.45902 -0.0918,0.0459 -0.0918,0.0459 l 19.92165,-0.0459 0.22951,-10.69526 9.91492,-10.14444 -23.54793,-0.0459 0.0459,7.75751 8.62965,0.0459 -0.0918,4.40663 -14.82648,0.18361 c 0,0 -1.33117,-0.55083 -1.10166,-1.42297 0.22951,-0.87215 0,-0.13771 0,-0.13771 l 0.0918,-15.46911 c 0,0 0.22951,-0.91805 1.23936,-0.82625 1.00985,0.0918 0,0 0,0 z"
       id="path27" /><path
       style="fill:#000000;fill-opacity:1;stroke-width:0.264583"
       d="m 158.9802,79.104688 7.94551,-8.62603 -0.0368,9.50886 15.91288,-0.10625 c 0,0 0.98397,-0.23427 1.03082,-1.26509 0.0469,-1.03081 0.14057,-15.55594 0.14057,-15.55594 0,0 -0.51541,-0.98397 -1.68679,-1.07768 -1.17139,-0.0937 -23.66191,0.0469 -23.66191,0.0469 0,0 2.48333,-8.4808 12.8852,-8.62137 10.40187,-0.14056 11.43268,-0.0469 11.43268,-0.0469 0,0 9.18363,1.45251 9.41791,8.0591 0.23428,6.60659 0.18742,18.03928 0.18742,18.03928 0,0 -1.92107,8.57451 -10.21445,8.80879 -8.29338,0.23427 -14.89997,-0.0469 -14.89997,-0.0469 0,0 -7.26257,-2.06163 -8.01225,-5.81005 -0.74969,-3.74842 -0.44083,-3.30677 -0.44083,-3.30677 z"
       id="path28" /><path
       style="fill:#000000;fill-opacity:1;stroke-width:0.264583"
       d="m 86.017791,56.452538 2.47613,-2.31638 23.430029,-0.0532 c 0,0 1.81051,0.0266 1.86376,1.51763 0.0533,1.491 0.0266,6.23026 0.0266,6.23026 0,0 0.0532,0.7455 -1.09163,1.78388 -1.14487,1.03837 -4.31325,3.32813 -4.31325,3.32813 l -18.610903,12.91314 0.02662,7.74788 c 0,0 -0.186376,0.0533 0.639,0.7455 0.825376,0.69225 6.443258,4.76588 6.443258,4.76588 0,0 0.186375,0.29288 0.639,0.29288 0.452626,0 15.442515,-0.13313 15.442515,-0.13313 0,0 0.0533,0.1065 0.58576,-0.29287 0.5325,-0.39938 3.03525,-2.79563 3.03525,-2.79563 l 4.23338,0.0266 -6.07051,4.92563 c 0,0 -0.5325,0.50588 -1.57087,0.47925 -1.03838,-0.0266 -16.560776,0.0799 -16.560776,0.0799 0,0 -0.69225,-0.23963 -1.517626,-0.82538 -0.825378,-0.58575 -6.709508,-5.03213 -6.709508,-5.03213 0,0 -1.198128,-0.98512 -1.198128,-3.38138 0,-2.39625 -0.02663,-6.603 -0.02663,-6.603 0,0 0.15975,-1.25138 1.144878,-2.02351 0.985126,-0.77212 22.49816,-15.89514 22.49816,-15.89514 l 0.26625,-0.26625 -0.1065,-4.73926 c 0,0 0,-0.45262 -0.69225,-0.45262 -0.69225,0 -24.282039,-0.0266 -24.282039,-0.0266 z"
       id="path29" /></g></svg>
