<svg version="1.1" xmlns="http://www.w3.org/2000/svg" width="978" height="512" viewBox="0 0 978 512">
<title></title>
<g id="icomoon-ignore">
</g>
<path d="M56.394 7.123l-49.478 372.024h191.177l192.927-345.726 53.426 345.726h477.006l49.122-372.024zM270.396 113.174h-112.046l-6.411 51.171h92.219l-7.628 59.184h-92.012l-15.731 119.764h-70.968l36.834-293.101h185.448zM558.303 136.741c2.968 3.888 10.715 7.717 23.151 11.546q46.184 14.484 65.298 28.048c11.784 7.968 20.889 19.097 26.188 32.176l0.169 0.473c3.379 9.030 5.333 19.464 5.333 30.355 0 4.179-0.288 8.292-0.845 12.319l0.053-0.466c-2.112 18.69-8.646 35.522-18.524 49.877l0.24-0.368c-9.677 14.413-22.905 25.754-38.455 32.916l-0.576 0.238q-23.745 10.804-57.938 9.231-59.986-2.76-79.813-31.551c-7.816-11.318-13.452-24.756-15.971-39.263l-0.086-0.599 67.762-33.837q0 20.361 5.551 31.255c5.577 11.115 16.884 18.611 29.942 18.611 0.044 0 0.088 0 0.132-0h-0.007c1.011 0.108 2.183 0.168 3.371 0.168 8.25 0 15.808-2.957 21.673-7.87l-0.053 0.043c5.808-4.922 9.755-11.884 10.73-19.766l0.015-0.15c0.127-0.978 0.199-2.108 0.199-3.255 0-6.379-2.236-12.236-5.966-16.829l0.039 0.049q-7.034-8.905-35.291-18.076-46.273-15.078-64.141-37.399t-14.217-55.445c1.877-15.364 7.347-29.166 15.54-40.929l-0.195 0.296c8.757-12.671 20.655-22.596 34.588-28.761l0.525-0.208q22.35-10.062 59.036-8.4 45.056 2.108 66.367 23.299c9.231 9.201 15.404 22.41 18.462 38.585l-66.753 28.524c-0.327-12.792-2.968-22.38-8.221-28.434s-12.881-9.29-23.121-9.765c-0.906-0.106-1.955-0.166-3.019-0.166-6.36 0-12.215 2.162-16.87 5.793l0.061-0.046c-4.511 3.766-7.552 9.162-8.212 15.272l-0.009 0.103c-0.069 0.558-0.109 1.205-0.109 1.861 0 4.054 1.516 7.752 4.011 10.562l-0.014-0.017zM913.467 112.996h-70.523l-29.681 230.207h-72.897l29.681-230.207h-76.162l8.519-62.895h219.225zM191.948 503.481l169.657-304.499 49.3 304.499h-218.958zM533.163 435.363c-13.98 0-23.745 7.212-25.704 18.788-2.019 12.466 6.204 16.74 13.623 19.055l6.797 2.137c7.005 2.166 8.163 4.214 7.747 6.797-0.92 5.61-7.45 6.441-11.249 6.441-0.314 0.033-0.678 0.052-1.047 0.052-2.965 0-5.644-1.224-7.558-3.195l-0.003-0.002c-1.027-1.433-1.643-3.221-1.643-5.153 0-0.391 0.025-0.776 0.074-1.154l-0.005 0.045 0.237-1.632h-14.188l-0.178 1.187c-0.131 0.888-0.206 1.913-0.206 2.957 0 4.687 1.513 9.021 4.077 12.538l-0.043-0.061c3.799 4.808 10.003 7.242 18.403 7.242 11.22 0 25.14-4.957 27.395-18.966 2.137-13.208-7.628-17.808-15.167-19.976l-6.797-2.048c-5.669-1.781-6.559-3.71-6.173-6.115 0.653-4.096 3.829-6.115 9.706-6.115 0.247-0.025 0.534-0.039 0.825-0.039 2.484 0 4.722 1.053 6.293 2.736l0.005 0.005c0.971 1.406 1.552 3.146 1.552 5.022 0 0.385-0.024 0.764-0.072 1.137l0.005-0.044-0.237 1.632h14.188l0.178-1.187c0.124-0.863 0.195-1.861 0.195-2.874 0-4.659-1.497-8.969-4.037-12.474l0.043 0.062c-3.562-4.512-9.32-6.797-17.037-6.797zM641.173 460.86h-18.669l3.918-24.22h-14.039l-10.269 63.488h14.039l4.304-26.683h18.669l-4.304 26.683h14.010l10.269-63.488h-14.010l-3.918 24.22zM738.853 435.363c-15.494 0-26.179 8.904-28.643 24.19l-2.76 17.185c-0.366 1.506-0.577 3.235-0.577 5.012 0 4.723 1.482 9.099 4.007 12.688l-0.047-0.070c3.651 4.601 9.795 7.034 17.808 7.034 15.464 0 26.179-9.053 28.612-24.19l2.79-17.185c0.36-1.497 0.566-3.216 0.566-4.982 0-4.731-1.477-9.116-3.996-12.721l0.048 0.072c-3.681-4.601-9.854-7.034-17.808-7.034zM721.46 477.214l2.76-17.156c1.277-7.776 5.639-11.873 12.971-11.873 0.311-0.038 0.669-0.060 1.034-0.060 2.534 0 4.821 1.058 6.442 2.757l0.004 0.003c1.033 1.63 1.646 3.613 1.646 5.741 0 0.998-0.135 1.965-0.388 2.883l0.018-0.076-2.79 17.185c-1.246 7.806-5.61 11.873-12.941 11.873-0.284 0.031-0.612 0.049-0.944 0.049-2.575 0-4.901-1.065-6.563-2.777l-0.002-0.002c-1.014-1.63-1.616-3.608-1.616-5.726 0-1.003 0.135-1.976 0.388-2.899l-0.018 0.077zM864.345 442.962c-3.265-4.125-9.172-6.322-17.037-6.322h-27.574l-10.269 63.488h14.039l4.067-25.14h14.010c14.217 0 23.508-6.886 25.437-18.877 0.259-1.087 0.407-2.335 0.407-3.618 0-3.579-1.154-6.889-3.111-9.577l0.033 0.047zM831.696 449.402h13.090c3.829 0 6.381 0.712 7.51 2.166 0.53 0.777 0.847 1.737 0.847 2.771 0 0.45-0.060 0.886-0.173 1.3l0.008-0.034c-0.505 2.968-2.167 6.619-10.715 6.619h-12.644z"></path>
</svg>
